<?xml version="1.0" standalone="no"?>
<!DOCTYPE svg PUBLIC "-//W3C//DTD SVG 20010904//EN"
 "http://www.w3.org/TR/2001/REC-SVG-20010904/DTD/svg10.dtd">
<svg version="1.0" xmlns="http://www.w3.org/2000/svg"
 width="115.000000pt" height="115.000000pt" viewBox="0 0 115.000000 115.000000"
 preserveAspectRatio="xMidYMid meet">
<metadata>
Created by potrace 1.14, written by Peter Selinger 2001-2017
</metadata>
<g transform="translate(0.000000,115.000000) scale(0.100000,-0.100000)"
fill="#000000" stroke="none">
<path d="M575 1113 c-90 -15 -138 -29 -185 -53 -86 -44 -89 -48 -94 -115 -4
-56 -18 -314 -19 -344 -1 -24 -59 -51 -105 -48 -43 3 -57 -7 -24 -18 9 -3 25
-11 34 -19 16 -12 14 -23 -32 -162 l-49 -149 77 82 c91 96 113 110 134 85 15
-16 31 -75 43 -152 10 -60 15 -69 58 -95 90 -52 148 -65 314 -71 l122 -4 11
53 c54 256 86 444 77 454 -5 7 -33 24 -62 39 -50 24 -60 25 -147 19 -51 -3
-109 -8 -128 -10 -19 -3 -60 -7 -90 -10 -30 -4 -57 -8 -59 -10 -2 -3 -12 0
-23 6 -39 21 -65 134 -35 156 29 23 148 46 253 50 115 3 210 -14 284 -50 18
-10 36 -17 40 -17 3 0 6 55 6 121 l-1 122 -35 29 c-41 34 -138 82 -195 97 -46
11 -141 19 -170 14z"/>
</g>
</svg>
